<?xml version="1.0" encoding="utf-8"?>
<!-- Generator: Adobe Illustrator 26.5.3, SVG Export Plug-In . SVG Version: 6.00 Build 0)  -->
<svg version="1.1" id="Layer_1" xmlns="http://www.w3.org/2000/svg" xmlns:xlink="http://www.w3.org/1999/xlink" x="0px" y="0px"
	 viewBox="0 0 756.7 370.6" style="enable-background:new 0 0 756.7 370.6;" xml:space="preserve">
<style type="text/css">
	.st0{fill:#BCBCBC;stroke:#231F20;stroke-miterlimit:10;}
	.st1{opacity:0.5;}
	.st2{fill:none;stroke:#169E4D;stroke-miterlimit:10;stroke-dasharray:2;}
	.st3{fill:none;stroke:#4259A7;stroke-miterlimit:10;stroke-dasharray:2;}
	.st4{fill:none;stroke:#AD1F2B;stroke-miterlimit:10;stroke-dasharray:2,2;}
	.st5{opacity:0.5;fill:none;stroke:#FFFFFF;stroke-miterlimit:10;enable-background:new    ;}
	.st6{fill:#A2A2A3;stroke:#231F20;stroke-miterlimit:10;}
	.st7{fill:none;stroke:#231F20;stroke-miterlimit:10;}
	.st8{opacity:0.5;fill:none;stroke:#231F20;stroke-miterlimit:10;enable-background:new    ;}
	.st9{fill:none;stroke:#FFFFFF;stroke-miterlimit:10;}
	.st10{fill:none;stroke:#4259A7;stroke-miterlimit:10;}
	.st11{fill:none;stroke:#AD1F2B;stroke-miterlimit:10;}
	.st12{fill:none;stroke:#169E4D;stroke-miterlimit:10;}
	.st13{fill:#AD1F2B;}
	.st14{font-family:'ArialMT';}
	.st15{font-size:18.693px;}
	.st16{fill:#4259A7;}
	.st17{fill:#169E4D;}
	.st18{enable-background:new    ;}
	.st19{fill:#515151;}
</style>
<path class="st0" d="M272.1,134.3c-5.5-3-18.3,3.2-24.6,5.6l-10.3-9.7c8.3-3,23.1-8.8,31.6-6.4s12.1,6.3,11.6,13.7
	c-0.5,7.4-5.4,23.4-10.1,30.6s-6.5,8.7-6.5,8.7l-7.9-17.8c0,0,0.5,1.3,3.4-3.5s7.5-18.9,4.9-21.6"/>
<g class="st1">
	<line class="st2" x1="224.9" y1="53.5" x2="224.9" y2="172.8"/>
	<line class="st3" x1="31.2" y1="251.4" x2="224.3" y2="171.7"/>
	<line class="st4" x1="340.1" y1="219.7" x2="225.6" y2="172.4"/>
</g>
<path class="st0" d="M267.3,178.2c0,0-11.7-30.1-16.9-36.4s-16.7-22.7-61.4-22.7s-56.2,16.5-61.4,22.7c-5.2,6.2-16.9,36.4-16.9,36.4
	c-7.4,46.3,21.2,61.2,21.2,61.2s1.2,3.1,1.2,3.5c14.2,11.3,39.1,14.4,56,14.4c16.9,0,41.8-3.1,56-14.4c0-0.4,1.2-3.5,1.2-3.5
	S283,224.1,267.3,178.2z"/>
<path class="st5" d="M135,137.6c6.5-6.3,22-15.7,53.5-15.7s44.1,7.5,54.3,15.7"/>
<path class="st0" d="M139.9,233.7c-17.2-0.6-27.8-3-33.4-16.3s-3.8-25.5-10.2-29.6s-12.7-6.5-6.7-9.1c6-2.6,15.8-4.5,19.8-0.5
	s11.2,15.6,13.3,20.1c2.1,4.5,4.5,8.4,14,5.7"/>
<path class="st5" d="M182.3,136.8c2.9,2,8.9,2.4,13.2,0"/>
<path class="st6" d="M89.6,182c2,0.6,5.4,0.8,9.1-0.4c3.7-1.2,6.4-2.5,6.1-3.7"/>
<path class="st5" d="M90.8,183c2,0.5,4.2,0.5,8.7-0.7c4.5-1.2,6.8-3.4,6.5-4.6"/>
<path class="st5" d="M96,184.5c2.9-0.6,7.9-2.8,11.6-1.2s4.3,5.2,4.3,5.2"/>
<path class="st5" d="M139.5,206.2c3.3,2.2,6.9,8.7,6.2,14.4s-2.3,9.7-4.1,11.4"/>
<path class="st7" d="M136.2,150.8c-1.3-3.6-1.6-10.7,6.2-15.4c7.9-4.7,23.4-11.7,46.4-11.7"/>
<path class="st7" d="M241.5,150.6c1.2-3.5,1.6-10.4-6.2-15.1c-7.9-4.7-23.4-11.7-46.4-11.7"/>
<path class="st7" d="M132.4,144.3c2.9,8.2,17.9,22.2,57.9,22.2s50.9-12.2,54.8-23"/>
<path class="st5" d="M129.6,144.7c3,9,18.8,24.3,60.8,24.3s53.4-13.4,57.5-25.2"/>
<path class="st0" d="M196.9,135.4c-0.6-1.8-1.4-4,0.4-5.4s5.9-5.6,6.1-7.3c0.2-1.8,0.8-8.3-14.8-8.3s-15,6.6-14.8,8.3
	c0.2,1.8,4.3,6,6.1,7.3s1,3.6,0.4,5.4"/>
<path class="st5" d="M201.6,123.9c-2.4,2.2-6.1,4.4-13,4.4c-6.9,0-10.6-2.3-13-4.4"/>
<path class="st8" d="M241.9,240.8c-16,7.8-29.5,11.3-53.3,11.3s-37.2-3.5-53.3-11.3"/>
<path class="st9" d="M242.8,137.6"/>
<path class="st9" d="M135,137.6"/>
<path class="st5" d="M119.2,203.1c3.2,5.6,3.4,12.2,19.7,8.3"/>
<path class="st5" d="M247.1,134.7c5.5-2.5,16.2-7.8,24.5-4.9"/>
<path class="st5" d="M263.6,167.3c3.2-3.1,7-10.9,8.8-20.2"/>
<path class="st5" d="M88.4,180.9c-0.2-0.7,1.5-1.6,3.7-2.2s5.5-1.7,8.5-2c2.9-0.3,4.4,0.3,4.4,0.3"/>
<path class="st5" d="M137.1,236c12.8,8.1,29.5,10.5,55.2,10.5s58.7-10,70.6-27.4"/>
<g class="st1">
	<line class="st10" x1="31.2" y1="133.6" x2="224.3" y2="54"/>
	<line class="st10" x1="146.3" y1="180.4" x2="339.4" y2="100.8"/>
	<line class="st10" x1="146.3" y1="298.7" x2="339.4" y2="219.1"/>
	<line class="st11" x1="145.7" y1="180.4" x2="31.2" y2="133.2"/>
	<line class="st11" x1="145.7" y1="299.4" x2="31.2" y2="252.1"/>
	<line class="st11" x1="339.4" y1="100.8" x2="224.9" y2="53.5"/>
	<line class="st12" x1="31.2" y1="132.9" x2="31.2" y2="252.1"/>
	<line class="st12" x1="145.8" y1="181.2" x2="145.8" y2="300.4"/>
	<line class="st12" x1="339.4" y1="100.8" x2="339.4" y2="220"/>
</g>
<g>
	<text transform="matrix(1 0 0 1 70.3601 298.3499)" class="st13 st14 st15">1.3</text>
</g>
<g>
	<text transform="matrix(1 0 0 1 268.1516 270.0164)" class="st16 st14 st15">2</text>
</g>
<g>
	<text transform="matrix(1 0 0 1 9.4512 197.7747)" class="st17 st14 st15">1</text>
</g>
<path class="st0" d="M647.1,137c-5.5-3-18.3,3.2-24.6,5.6l-10.3-9.7c8.3-3,23.1-8.8,31.5-6.4c8.5,2.4,12.1,6.3,11.6,13.7
	s-5.4,23.4-10.1,30.6s-6.5,8.7-6.5,8.7l-7.9-17.8c0,0,0.5,1.3,3.4-3.5c2.9-4.8,7.5-18.9,4.9-21.6"/>
<path class="st0" d="M642.4,180.9c0,0-11.7-30.1-16.9-36.4s-16.7-22.7-61.4-22.7s-56.2,16.5-61.4,22.7s-16.9,36.4-16.9,36.4
	c-7.4,46.3,21.2,61.2,21.2,61.2s1.2,3.1,1.2,3.5c14.2,11.3,39.1,14.4,56,14.4c16.9,0,41.8-3.1,56-14.4c0-0.4,1.2-3.5,1.2-3.5
	S658.1,226.8,642.4,180.9z"/>
<path class="st5" d="M510.1,140.3c6.5-6.3,22-15.7,53.5-15.7s44.1,7.5,54.3,15.7"/>
<path class="st0" d="M514.9,236.4c-17.2-0.6-27.8-3-33.4-16.3c-5.6-13.3-3.8-25.5-10.2-29.6s-12.7-6.5-6.7-9.1s15.8-4.5,19.8-0.5
	s11.2,15.6,13.3,20.1c2.1,4.5,4.5,8.4,14,5.7"/>
<path class="st5" d="M557.4,139.5c2.9,2,8.9,2.4,13.2,0"/>
<path class="st7" d="M464.7,184.7c2,0.6,5.4,0.8,9.1-0.4c3.7-1.2,6.4-2.5,6.1-3.7"/>
<path class="st5" d="M465.8,185.7c2,0.5,4.2,0.5,8.7-0.7c4.5-1.2,6.8-3.4,6.5-4.6"/>
<path class="st5" d="M471,187.2c2.9-0.6,8-2.8,11.6-1.2s4.3,5.2,4.3,5.2"/>
<path class="st5" d="M514.6,208.9c3.3,2.2,6.9,8.7,6.2,14.4s-2.3,9.7-4.1,11.4"/>
<path class="st7" d="M511.3,153.4c-1.3-3.6-1.6-10.7,6.3-15.4c7.9-4.7,23.3-11.7,46.4-11.7"/>
<path class="st7" d="M616.5,153.3c1.2-3.5,1.7-10.4-6.2-15.1c-7.9-4.7-23.3-11.7-46.4-11.7"/>
<path class="st7" d="M507.4,147c2.9,8.2,18,22.2,57.9,22.2s50.9-12.2,54.8-23"/>
<path class="st5" d="M504.7,147.4c3,9,18.8,24.3,60.8,24.3s53.4-13.4,57.5-25.2"/>
<path class="st0" d="M571.9,138.1c-0.5-1.8-1.4-4,0.4-5.4c1.8-1.3,5.9-5.6,6.1-7.3c0.2-1.8,0.8-8.3-14.8-8.3s-15,6.6-14.8,8.3
	c0.2,1.8,4.3,6,6.1,7.3c1.8,1.3,1,3.6,0.4,5.4"/>
<path class="st5" d="M576.6,126.6c-2.4,2.2-6.1,4.5-13,4.5s-10.6-2.3-13-4.4"/>
<path class="st8" d="M617,243.5c-16,7.8-29.5,11.3-53.3,11.3s-37.2-3.5-53.3-11.3"/>
<path class="st9" d="M617.9,140.3"/>
<path class="st9" d="M510.1,140.3"/>
<path class="st5" d="M494.2,205.8c3.2,5.6,3.5,12.2,19.7,8.3"/>
<path class="st5" d="M622.2,137.4c5.5-2.5,16.2-7.8,24.5-4.9"/>
<path class="st5" d="M638.7,169.9c3.2-3.1,7-10.9,8.8-20.2"/>
<path class="st5" d="M463.4,183.6c-0.2-0.7,1.5-1.6,3.6-2.2s5.5-1.7,8.5-2c2.9-0.3,4.4,0.3,4.4,0.3"/>
<path class="st5" d="M512.2,238.7c12.8,8.1,29.5,10.5,55.2,10.5c25.7,0,58.7-10,70.6-27.4"/>
<g class="st1">
	<line class="st2" x1="563.2" y1="124.6" x2="563.2" y2="183.8"/>
	<line class="st12" x1="563.1" y1="97.6" x2="563.2" y2="124.6"/>
	<line class="st3" x1="517.7" y1="201.2" x2="562.7" y2="182.7"/>
	<line class="st10" x1="502.7" y1="207.5" x2="517.7" y2="201.2"/>
	<line class="st3" x1="485.6" y1="214.5" x2="502.7" y2="207.5"/>
	<line class="st10" x1="442.4" y1="232.4" x2="485.6" y2="214.5"/>
	<line class="st4" x1="619" y1="206.2" x2="564" y2="183.5"/>
	<line class="st11" x1="655.6" y1="221.4" x2="619" y2="206.2"/>
</g>
<g>
	<text transform="matrix(1 0 0 1 502.6801 286.5416)" class="st18"><tspan x="0" y="0" class="st19 st14 st15">(</tspan><tspan x="6.6" y="0" class="st13 st14 st15">0,</tspan><tspan x="22.9" y="0" class="st16 st14 st15"> </tspan><tspan x="28.5" y="0" class="st17 st14 st15">0.5,</tspan><tspan x="61.2" y="0" class="st16 st14 st15"> -0.25</tspan><tspan x="111.2" y="0" class="st19 st14 st15">)</tspan></text>
</g>
</svg>
