<?xml version="1.0" encoding="utf-8"?>
<!-- Generator: Adobe Illustrator 28.3.0, SVG Export Plug-In . SVG Version: 6.00 Build 0)  -->
<svg version="1.1" id="Layer_1" xmlns="http://www.w3.org/2000/svg" xmlns:xlink="http://www.w3.org/1999/xlink" x="0px" y="0px"
	 viewBox="0 0 756.73 370.58" style="enable-background:new 0 0 756.73 370.58;" xml:space="preserve">
<style type="text/css">
	.st0{fill:#BCBCBC;stroke:#231F20;stroke-miterlimit:10;}
	.st1{opacity:0.5;}
	.st2{fill:none;stroke:#169E4D;stroke-miterlimit:10;stroke-dasharray:2;}
	.st3{fill:none;stroke:#4259A7;stroke-miterlimit:10;stroke-dasharray:2;}
	.st4{fill:none;stroke:#AD1F2B;stroke-miterlimit:10;stroke-dasharray:2,2;}
	.st5{opacity:0.5;fill:none;stroke:#FFFFFF;stroke-miterlimit:10;}
	.st6{fill:#A2A2A3;stroke:#231F20;stroke-miterlimit:10;}
	.st7{fill:none;stroke:#231F20;stroke-miterlimit:10;}
	.st8{opacity:0.5;fill:none;stroke:#231F20;stroke-miterlimit:10;}
	.st9{fill:none;stroke:#FFFFFF;stroke-miterlimit:10;}
	.st10{fill:none;stroke:#4259A7;stroke-miterlimit:10;}
	.st11{fill:none;stroke:#AD1F2B;stroke-miterlimit:10;}
	.st12{fill:none;stroke:#169E4D;stroke-miterlimit:10;}
	.st13{fill:#AD1F2B;}
	.st14{font-family:'MyriadPro-Regular';}
	.st15{font-size:18.693px;}
	.st16{fill:#4259A7;}
	.st17{fill:#169E4D;}
	.st18{opacity:0.5;fill:url(#SVGID_1_);}
	.st19{fill:none;stroke:#6BB4E3;stroke-width:2;stroke-miterlimit:10;}
	.st20{fill:#6BB4E3;}
	.st21{font-size:33.5217px;}
</style>
<path class="st0" d="M272.06,134.33c-5.45-3.01-18.28,3.21-24.63,5.64l-10.26-9.68c8.27-3.01,23.09-8.77,31.55-6.37
	c8.46,2.4,12.06,6.33,11.61,13.7c-0.45,7.36-5.44,23.37-10.13,30.58s-6.54,8.72-6.54,8.72l-7.89-17.76c0,0,0.51,1.28,3.4-3.46
	s7.5-18.94,4.92-21.65"/>
<g class="st1">
	<line class="st2" x1="224.89" y1="53.52" x2="224.89" y2="172.77"/>
	<line class="st3" x1="31.23" y1="251.35" x2="224.34" y2="171.69"/>
	<line class="st4" x1="340.14" y1="219.68" x2="225.64" y2="172.45"/>
</g>
<path class="st0" d="M267.31,178.19c0,0-11.66-30.13-16.91-36.35c-5.25-6.22-16.72-22.74-61.43-22.74
	c-44.71,0-56.18,16.52-61.43,22.74c-5.25,6.22-16.91,36.35-16.91,36.35c-7.39,46.27,21.19,61.24,21.19,61.24s1.17,3.11,1.17,3.5
	c14.19,11.28,39.07,14.39,55.99,14.39c16.91,0,41.8-3.11,55.99-14.39c0-0.39,1.17-3.5,1.17-3.5S283.05,224.07,267.31,178.19z"/>
<path class="st5" d="M135.03,137.62c6.48-6.33,22-15.7,53.54-15.7s44.09,7.48,54.26,15.7"/>
<path class="st0" d="M139.85,233.69c-17.19-0.59-27.79-3.04-33.39-16.3s-3.83-25.54-10.21-29.56s-12.67-6.48-6.68-9.13
	c5.99-2.65,15.81-4.52,19.84-0.49s11.2,15.62,13.26,20.13c2.06,4.52,4.52,8.35,14.04,5.7"/>
<path class="st5" d="M182.32,136.79c2.87,2.04,8.94,2.35,13.17,0"/>
<path class="st6" d="M89.64,182.01c1.96,0.6,5.38,0.75,9.11-0.45c3.72-1.21,6.44-2.47,6.09-3.72"/>
<path class="st5" d="M90.78,182.98c1.99,0.5,4.25,0.48,8.71-0.73c4.47-1.21,6.82-3.35,6.46-4.61"/>
<path class="st5" d="M95.98,184.53c2.92-0.65,7.95-2.77,11.57-1.16c3.62,1.61,4.33,5.18,4.33,5.18"/>
<path class="st5" d="M139.53,206.18c3.32,2.18,6.9,8.72,6.23,14.37s-2.34,9.7-4.13,11.42"/>
<path class="st7" d="M136.21,150.76c-1.3-3.63-1.62-10.68,6.25-15.39c7.86-4.71,23.35-11.68,46.39-11.68"/>
<path class="st7" d="M241.46,150.63c1.25-3.49,1.65-10.43-6.22-15.14c-7.86-4.71-23.35-11.68-46.39-11.68"/>
<path class="st7" d="M132.37,144.33c2.86,8.19,17.95,22.24,57.94,22.24s50.91-12.22,54.81-23.02"/>
<path class="st5" d="M129.62,144.74c3,8.97,18.84,24.34,60.79,24.34s53.41-13.38,57.51-25.19"/>
<path class="st0" d="M196.85,135.37c-0.55-1.76-1.41-4.02,0.43-5.35s5.94-5.55,6.09-7.31c0.16-1.76,0.82-8.32-14.81-8.32
	s-14.96,6.56-14.81,8.32c0.16,1.76,4.26,5.98,6.09,7.31s0.98,3.59,0.43,5.35"/>
<path class="st5" d="M201.58,123.92c-2.42,2.19-6.09,4.45-13.01,4.45c-6.91,0-10.59-2.27-13.01-4.45"/>
<path class="st8" d="M241.9,240.79c-16.04,7.81-29.51,11.33-53.28,11.33s-37.24-3.52-53.28-11.33"/>
<path class="st9" d="M242.83,137.62"/>
<path class="st9" d="M135.03,137.62"/>
<path class="st5" d="M119.16,203.09c3.21,5.59,3.45,12.25,19.74,8.32"/>
<path class="st5" d="M247.13,134.71c5.46-2.5,16.18-7.76,24.46-4.95"/>
<path class="st5" d="M263.65,167.27c3.21-3.12,7.05-10.88,8.83-20.16"/>
<path class="st5" d="M88.37,180.95c-0.18-0.69,1.5-1.58,3.65-2.19c2.15-0.61,5.54-1.7,8.46-1.97c2.91-0.26,4.38,0.3,4.38,0.3"/>
<path class="st5" d="M137.13,235.99c12.78,8.07,29.51,10.47,55.16,10.47s58.74-9.99,70.63-27.38"/>
<g class="st1">
	<line class="st10" x1="31.23" y1="133.65" x2="224.34" y2="53.98"/>
	<line class="st10" x1="146.27" y1="180.43" x2="339.38" y2="100.76"/>
	<line class="st10" x1="146.27" y1="298.74" x2="339.38" y2="219.07"/>
	<line class="st11" x1="145.73" y1="180.43" x2="31.23" y2="133.19"/>
	<line class="st11" x1="145.73" y1="299.35" x2="31.23" y2="252.11"/>
	<line class="st11" x1="339.38" y1="100.76" x2="224.89" y2="53.52"/>
	<line class="st12" x1="31.23" y1="132.87" x2="31.23" y2="252.11"/>
	<line class="st12" x1="145.84" y1="181.17" x2="145.84" y2="300.41"/>
	<line class="st12" x1="339.38" y1="100.76" x2="339.38" y2="220"/>
</g>
<g>
	<text transform="matrix(1 0 0 1 70.3601 298.3499)" class="st13 st14 st15">1.3</text>
</g>
<g>
	<text transform="matrix(1 0 0 1 268.1516 270.0164)" class="st16 st14 st15">2</text>
</g>
<g>
	<text transform="matrix(1 0 0 1 9.4512 197.7747)" class="st17 st14 st15">1</text>
</g>
<path class="st0" d="M647.12,137.02c-5.45-3.01-18.28,3.21-24.63,5.64l-10.26-9.68c8.27-3.01,23.09-8.77,31.55-6.37
	c8.46,2.4,12.06,6.33,11.61,13.7s-5.44,23.37-10.13,30.58s-6.54,8.72-6.54,8.72l-7.89-17.76c0,0,0.51,1.28,3.4-3.46
	c2.89-4.75,7.5-18.94,4.92-21.65"/>
<g class="st1">
	<line class="st2" x1="599.94" y1="56.21" x2="599.94" y2="175.45"/>
	<line class="st3" x1="406.29" y1="254.04" x2="599.4" y2="174.37"/>
	<line class="st4" x1="715.2" y1="222.36" x2="600.7" y2="175.13"/>
</g>
<path class="st0" d="M642.37,180.87c0,0-11.66-30.13-16.91-36.35c-5.25-6.22-16.72-22.74-61.43-22.74
	c-44.71,0-56.18,16.52-61.43,22.74c-5.25,6.22-16.91,36.35-16.91,36.35c-7.39,46.27,21.19,61.24,21.19,61.24s1.17,3.11,1.17,3.5
	c14.19,11.28,39.07,14.39,55.99,14.39c16.91,0,41.8-3.11,55.99-14.39c0-0.39,1.17-3.5,1.17-3.5S658.11,226.75,642.37,180.87z"/>
<path class="st5" d="M510.09,140.3c6.48-6.33,22-15.7,53.54-15.7s44.09,7.48,54.26,15.7"/>
<path class="st0" d="M514.91,236.37c-17.19-0.59-27.79-3.04-33.39-16.3c-5.6-13.26-3.83-25.54-10.21-29.56s-12.67-6.48-6.68-9.13
	s15.81-4.52,19.84-0.49c4.03,4.03,11.2,15.62,13.26,20.13c2.06,4.52,4.52,8.35,14.04,5.7"/>
<path class="st5" d="M557.38,139.47c2.87,2.04,8.94,2.35,13.17,0"/>
<path class="st6" d="M464.7,184.69c1.96,0.6,5.38,0.75,9.11-0.45c3.72-1.21,6.44-2.47,6.09-3.72"/>
<path class="st5" d="M465.84,185.66c1.99,0.5,4.25,0.48,8.71-0.73c4.47-1.21,6.82-3.35,6.46-4.61"/>
<path class="st5" d="M471.04,187.21c2.92-0.65,7.95-2.77,11.57-1.16c3.62,1.61,4.33,5.18,4.33,5.18"/>
<path class="st5" d="M514.59,208.86c3.32,2.18,6.9,8.72,6.23,14.37s-2.34,9.7-4.13,11.42"/>
<path class="st7" d="M511.27,153.44c-1.3-3.63-1.62-10.68,6.25-15.39c7.86-4.71,23.35-11.68,46.39-11.68"/>
<path class="st7" d="M616.52,153.31c1.25-3.49,1.65-10.43-6.22-15.14c-7.86-4.71-23.35-11.68-46.39-11.68"/>
<path class="st7" d="M507.43,147.02c2.86,8.19,17.95,22.24,57.94,22.24c39.99,0,50.91-12.22,54.81-23.02"/>
<path class="st5" d="M504.68,147.42c3,8.97,18.84,24.34,60.79,24.34s53.41-13.38,57.51-25.19"/>
<path class="st0" d="M571.91,138.05c-0.55-1.76-1.41-4.02,0.43-5.35c1.84-1.33,5.94-5.55,6.09-7.31c0.16-1.76,0.82-8.32-14.81-8.32
	s-14.96,6.56-14.81,8.32c0.16,1.76,4.26,5.98,6.09,7.31c1.84,1.33,0.98,3.59,0.43,5.35"/>
<path class="st5" d="M576.64,126.6c-2.42,2.19-6.09,4.45-13.01,4.45s-10.59-2.27-13.01-4.45"/>
<path class="st8" d="M616.96,243.47c-16.04,7.81-29.51,11.33-53.28,11.33s-37.24-3.52-53.28-11.33"/>
<path class="st9" d="M617.89,140.3"/>
<path class="st9" d="M510.09,140.3"/>
<path class="st5" d="M494.22,205.77c3.21,5.59,3.45,12.25,19.74,8.32"/>
<path class="st5" d="M622.19,137.4c5.46-2.5,16.18-7.76,24.46-4.95"/>
<path class="st5" d="M638.71,169.95c3.21-3.12,7.05-10.88,8.83-20.16"/>
<path class="st5" d="M463.43,183.63c-0.18-0.69,1.5-1.58,3.65-2.19c2.15-0.61,5.54-1.7,8.46-1.97c2.91-0.26,4.38,0.3,4.38,0.3"/>
<path class="st5" d="M512.19,238.67c12.78,8.07,29.51,10.47,55.16,10.47c25.65,0,58.74-9.99,70.63-27.38"/>
<g class="st1">
	<line class="st10" x1="406.29" y1="136.33" x2="599.4" y2="56.66"/>
	<line class="st10" x1="521.33" y1="183.11" x2="714.44" y2="103.44"/>
	<line class="st10" x1="521.33" y1="301.42" x2="714.44" y2="221.75"/>
	<line class="st11" x1="520.79" y1="183.11" x2="406.29" y2="135.87"/>
	<line class="st11" x1="520.79" y1="302.03" x2="406.29" y2="254.8"/>
	<line class="st11" x1="714.44" y1="103.44" x2="599.94" y2="56.21"/>
	<line class="st12" x1="406.29" y1="135.55" x2="406.29" y2="254.8"/>
	<line class="st12" x1="520.9" y1="183.85" x2="520.9" y2="303.09"/>
	<line class="st12" x1="714.44" y1="103.44" x2="714.44" y2="222.69"/>
</g>
<radialGradient id="SVGID_1_" cx="561.0586" cy="178.5422" r="171.8143" gradientUnits="userSpaceOnUse">
	<stop  offset="0.8503" style="stop-color:#EBEAEA;stop-opacity:0"/>
	<stop  offset="1" style="stop-color:#6AB4E4"/>
</radialGradient>
<circle class="st18" cx="561.06" cy="178.54" r="171.81"/>
<g>
	<g>
		<line class="st19" x1="576.64" y1="205.38" x2="686.93" y2="272.16"/>
		<g>
			<path class="st20" d="M697.25,278.42c-5.95-1.14-13.84-1.71-19.55-0.72l7.87-6.35l1.98-9.92
				C689.32,266.95,693.48,273.67,697.25,278.42z"/>
		</g>
	</g>
</g>
<g>
	<text transform="matrix(1 0 0 1 700.4224 300.3571)" class="st20 st14 st21">r</text>
</g>
</svg>
